
<svg
    xmlns="http://www.w3.org/2000/svg" 
    xmlns:xlink="http://www.w3.org/1999/xlink" 
    xmlns:serif="http://www.serif.com/" viewBox="0 0 64 80" 
    version="1.1" xml:space="preserve" style="" x="0px" y="0px" fill-rule="evenodd" 
    clip-rule="evenodd" stroke-linejoin="round" stroke-miterlimit="1.41421">
    
    <g>
        <path class="mag" d="M22,6C13.223,6 6,13.223 6,22C6,30.777 13.223,38 22,38C30.777,38 38,30.777 38,22C37.99,13.226 30.774,6.01 22,6ZM22,36C14.32,36 8,29.68 8,22C8,14.32 14.32,8 22,8C29.68,8 36,14.32 36,22C35.991,29.677 29.677,35.991 22,36Z" style="" fill-rule="nonzero"/>
        <path d="M18.74,30.39C15.904,29.269 13.814,26.795 13.182,23.812C13.083,23.353 12.674,23.023 12.205,23.023C11.656,23.023 11.205,23.474 11.205,24.023C11.205,24.087 11.211,24.151 11.223,24.214C11.969,27.872 14.532,30.906 18.013,32.253C18.129,32.299 18.252,32.322 18.377,32.322C18.377,32.322 18.377,32.322 18.377,32.322C18.925,32.322 19.377,31.87 19.377,31.322C19.377,30.91 19.123,30.539 18.74,30.39Z" style="" fill-rule="nonzero"/>
        <path d="M62.707,57.051L47.458,41.802L47.456,41.799L47.453,41.797L45.334,39.678C44.055,38.387 42.043,38.135 40.485,39.071L37.516,36.101C41.044,32.222 43,27.162 43,21.918C43,10.352 33.483,0.835 21.918,0.835C10.352,0.835 0.835,10.352 0.835,21.918C0.835,33.483 10.352,43 21.918,43C27.162,43 32.222,41.044 36.101,37.515L39.071,40.485C38.135,42.043 38.387,44.055 39.678,45.334L41.797,47.453L41.799,47.456L41.802,47.458L57.051,62.707C57.238,62.895 57.493,63 57.758,63C58.023,63 58.277,62.895 58.465,62.707L62.707,58.465C62.895,58.277 63,58.023 63,57.758C63,57.493 62.895,57.238 62.707,57.051ZM3,22C3,11.577 11.577,3 22,3C32.423,3 41,11.577 41,22C41,32.423 32.423,41 22,41C11.581,40.988 3.012,32.419 3,22ZM40.506,42.506C40.505,41.984 40.711,41.482 41.077,41.11C41.083,41.104 41.091,41.103 41.097,41.097C41.103,41.091 41.104,41.083 41.11,41.077C41.887,40.315 43.151,40.321 43.92,41.091L45.335,42.506L42.506,45.334L41.092,43.92C40.716,43.546 40.504,43.036 40.506,42.506ZM57.758,60.586L43.92,46.749L46.749,43.92L60.586,57.758L57.758,60.586Z" style="" fill-rule="nonzero"/>
    </g>
    <style>.mag{fill:#f4795b}</div></style>
    <text x="0" y="79" fill="#000000" font-size="5px" font-weight="bold" font-family="'Helvetica Neue', Helvetica, Arial-Unicode, Arial, Sans-serif">Created by Andreas Vögele</text>
    <text x="0" y="84" fill="#000000" font-size="5px" font-weight="bold" font-family="'Helvetica Neue', Helvetica, Arial-Unicode, Arial, Sans-serif">from the Noun Project</text>
</svg>